<svg width="500" height="500" viewBox="0 0 500 500" fill="none" xmlns="http://www.w3.org/2000/svg">
<g clip-path="url(#clip0_2_5)">
<path d="M250 180C275.483 180 297.788 193.587 310.054 213.903C309.858 213.58 309.661 213.257 309.461 212.937C302.732 223.685 298.843 236.389 298.843 250C298.843 263.611 302.732 276.315 309.461 287.063C309.662 286.743 309.858 286.42 310.054 286.096C297.788 306.413 275.483 320 250 320C224.517 320 202.211 306.413 189.945 286.096C190.141 286.42 190.338 286.743 190.539 287.063C197.268 276.315 201.157 263.611 201.157 250C201.157 236.389 197.268 223.685 190.539 212.937C190.338 213.257 190.141 213.579 189.945 213.903C202.211 193.587 224.517 180 250 180ZM187.121 280.939C187.429 281.562 187.746 282.179 188.071 282.791C187.746 282.179 187.429 281.562 187.121 280.939ZM184.705 275.468C184.966 276.136 185.238 276.798 185.519 277.456C185.238 276.798 184.966 276.136 184.705 275.468ZM315.295 275.468C315.044 276.11 314.783 276.747 314.514 277.38C314.783 276.747 315.044 276.11 315.295 275.468ZM182.652 269.411C182.57 269.127 182.489 268.843 182.411 268.558C182.489 268.843 182.57 269.127 182.652 269.411ZM179.921 250C179.921 250.382 179.925 250.763 179.931 251.144C179.925 250.763 179.921 250.382 179.921 250C179.921 249.618 179.925 249.236 179.931 248.855C179.925 249.236 179.921 249.618 179.921 250ZM320.068 248.855C320.074 249.236 320.079 249.618 320.079 250C320.079 250.382 320.074 250.763 320.068 251.144C320.074 250.763 320.079 250.382 320.079 250C320.079 249.618 320.074 249.236 320.068 248.855ZM180.113 244.792C180.138 244.462 180.164 244.133 180.192 243.805C180.164 244.133 180.138 244.462 180.113 244.792ZM181.27 236.271C181.341 235.913 181.415 235.556 181.491 235.2C181.415 235.556 181.341 235.913 181.27 236.271ZM182.414 231.432C182.4 231.483 182.385 231.533 182.371 231.584C182.385 231.533 182.4 231.483 182.414 231.432ZM185.519 222.543C185.237 223.201 184.966 223.864 184.705 224.532C184.966 223.864 185.237 223.201 185.519 222.543ZM314.481 222.543C314.763 223.201 315.034 223.864 315.295 224.532C315.034 223.864 314.763 223.201 314.481 222.543ZM186.063 221.301C186.184 221.033 186.307 220.765 186.431 220.499C186.307 220.765 186.184 221.033 186.063 221.301ZM188.071 217.208C187.746 217.82 187.429 218.437 187.121 219.06C187.429 218.437 187.746 217.82 188.071 217.208ZM188.251 216.872C188.386 216.622 188.522 216.372 188.66 216.124C188.522 216.372 188.386 216.622 188.251 216.872ZM311.748 283.127C311.606 283.391 311.462 283.654 311.316 283.916C311.462 283.654 311.606 283.391 311.748 283.127ZM318.729 263.729C318.657 264.091 318.583 264.452 318.505 264.812C318.583 264.452 318.657 264.091 318.729 263.729ZM317.347 230.588C317.43 230.878 317.513 231.169 317.593 231.461C317.513 231.169 317.43 230.878 317.347 230.588Z" fill="#180AC9"/>
<mask id="mask0_2_5" style="mask-type:luminance" maskUnits="userSpaceOnUse" x="309" y="180" width="130" height="142">
<path d="M439 180H309.153V321.443H439V180Z" fill="white"/>
</mask>
<g mask="url(#mask0_2_5)">
<path d="M368.921 180C407.625 180 439 211.34 439 250C439 288.66 407.625 320 368.921 320C330.218 320 298.843 288.66 298.843 250C298.843 211.34 330.218 180 368.921 180ZM309.618 213C302.889 223.748 299 236.452 299 250.063C299 263.674 302.889 276.378 309.618 287.126C316.346 276.378 320.236 263.674 320.236 250.063C320.236 236.452 316.346 223.748 309.618 213Z" fill="#180AC9"/>
</g>
<mask id="mask1_2_5" style="mask-type:luminance" maskUnits="userSpaceOnUse" x="61" y="180" width="130" height="142">
<path d="M190.847 180H61V321.443H190.847V180Z" fill="white"/>
</mask>
<g mask="url(#mask1_2_5)">
<path d="M131.079 180C156.536 180 178.821 193.559 191.095 213.841C190.912 213.538 190.727 213.236 190.539 212.937C183.81 223.685 179.921 236.389 179.921 250C179.921 263.611 183.81 276.315 190.539 287.063C190.727 286.764 190.911 286.461 191.095 286.158C178.821 306.44 156.536 320 131.079 320C92.3757 320 61 288.66 61 250C61 211.34 92.3757 180 131.079 180ZM193.961 280.931C193.652 281.556 193.334 282.176 193.007 282.791C193.334 282.176 193.652 281.556 193.961 280.931ZM196.407 275.381C196.135 276.08 195.851 276.774 195.557 277.463C195.851 276.774 196.135 276.08 196.407 275.381ZM200.965 255.214C200.91 255.963 200.842 256.708 200.764 257.45C200.842 256.708 200.91 255.963 200.965 255.214ZM201.146 248.827C201.152 249.217 201.157 249.608 201.157 250C201.157 250.391 201.152 250.782 201.146 251.172C201.152 250.782 201.157 250.391 201.157 250C201.157 249.608 201.152 249.217 201.146 248.827ZM200.764 242.549C200.842 243.291 200.91 244.036 200.965 244.785C200.91 244.036 200.842 243.291 200.764 242.549ZM195.557 222.536C195.851 223.225 196.135 223.919 196.407 224.618C196.135 223.919 195.851 223.225 195.557 222.536ZM193.007 217.208C193.334 217.823 193.652 218.443 193.961 219.068C193.652 218.443 193.334 217.823 193.007 217.208ZM197.615 272.028C197.508 272.351 197.399 272.673 197.287 272.993C197.399 272.673 197.508 272.351 197.615 272.028ZM198.322 269.768C198.225 270.097 198.127 270.425 198.025 270.752C198.127 270.425 198.225 270.097 198.322 269.768ZM199.786 263.84C199.724 264.148 199.661 264.455 199.595 264.762C199.661 264.455 199.724 264.148 199.786 263.84ZM196.456 224.745C196.586 225.081 196.715 225.418 196.84 225.757C196.715 225.418 196.586 225.081 196.456 224.745Z" fill="#180AC9"/>
</g>
</g>
<defs>
<clipPath id="clip0_2_5">
<rect width="500" height="500" fill="white"/>
</clipPath>
</defs>
</svg>
